# xmcd
#
# Track frame offsets:
#	182
#	10215
#	29910
#	45202
#	68707
#	75177
#	90415
#	103162
#	122252
#	137435
#	152545
#	163620
#	180605
#	191030
#	209997
#
# Disc length: 2908 seconds
#
# Revision: 5
# Processed by: cddbd v1.5.1PL0 Copyright (c) Steve Scherf et al.
# Submitted via: EasyCDDAExtractor 5.0.6
#
DISCID=ba0b5a0f
DTITLE=Portastatic - I Hope Your Heart Is Not Brittle
DYEAR=1993
DGENRE=Indie Rock
TTITLE0=Mute2
TTITLE1=Polaroid
TTITLE2=Gutter
TTITLE3=Naked Pilseners
TTITLE4=Tree Killer
TTITLE5=Creeping Around
TTITLE6=Weird Time
TTITLE7=Silver Screw
TTITLE8=Beer And Chocolate Bars
TTITLE9=Had
TTITLE10=Memphis
TTITLE11=Receiver
TTITLE12=Why Have You Come Back
TTITLE13=The Main Thing
TTITLE14=Untitled
EXTD=1993 Merge Records
EXTT0=
EXTT1=
EXTT2=
EXTT3=
EXTT4=
EXTT5=
EXTT6=
EXTT7=
EXTT8=
EXTT9=
EXTT10=
EXTT11=
EXTT12=
EXTT13=
EXTT14=
PLAYORDER=
